HIERARCHY
ROOT root
{
	OFFSET 0.000000 0.000000 0.000000
	CHANNELS 6 Xposition Yposition Zposition Zrotation Yrotation Xrotation
	JOINT lhip
	{
		OFFSET 0.058581 -0.082280 -0.017664
		CHANNELS 3 Zrotation Yrotation Xrotation
		JOINT lknee
		{
			OFFSET 0.043451 -0.386469 0.008037
			CHANNELS 3 Zrotation Yrotation Xrotation
			JOINT lankle
			{
				OFFSET -0.014790 -0.426874 -0.037428
				CHANNELS 3 Zrotation Yrotation Xrotation
				JOINT ltoe
				{
					OFFSET 0.041054 -0.060286 0.122042
					CHANNELS 3 Zrotation Yrotation Xrotation
					End Site
					{
						OFFSET 0.000000 0.000000 0.000000
					}
				}
			}
		}
	}
	JOINT rhip
	{
		OFFSET -0.060310 -0.090513 -0.013543
		CHANNELS 3 Zrotation Yrotation Xrotation
		JOINT rknee
		{
			OFFSET -0.043257 -0.383688 -0.004843
			CHANNELS 3 Zrotation Yrotation Xrotation
			JOINT rankle
			{
				OFFSET 0.019056 -0.420046 -0.034562
				CHANNELS 3 Zrotation Yrotation Xrotation
				JOINT rtoe
				{
					OFFSET -0.034840 -0.062106 0.130323
					CHANNELS 3 Zrotation Yrotation Xrotation
					End Site
					{
						OFFSET 0.000000 0.000000 0.000000
					}
				}
			}
		}
	}
	JOINT lowerback
	{
		OFFSET 0.004439 0.124404 -0.038385
		CHANNELS 3 Zrotation Yrotation Xrotation
		JOINT upperback
		{
			OFFSET 0.004488 0.137956 0.026820
			CHANNELS 3 Zrotation Yrotation Xrotation
			JOINT chest
			{
				OFFSET -0.002265 0.056032 0.002855
				CHANNELS 3 Zrotation Yrotation Xrotation
				JOINT lowerneck
				{
					OFFSET -0.013390 0.211636 -0.033468
					CHANNELS 3 Zrotation Yrotation Xrotation
					JOINT upperneck
					{
						OFFSET 0.010113 0.088937 0.050410
						CHANNELS 3 Zrotation Yrotation Xrotation
						End Site
						{
							OFFSET 0.000000 0.000000 0.000000
						}
					}
				}
				JOINT lclavicle
				{
					OFFSET 0.071702 0.114000 -0.018898
					CHANNELS 3 Zrotation Yrotation Xrotation
					JOINT lshoulder
					{
						OFFSET 0.122921 0.045205 -0.019046
						CHANNELS 3 Zrotation Yrotation Xrotation
						JOINT lelbow
						{
							OFFSET 0.255332 -0.015649 -0.022946
							CHANNELS 3 Zrotation Yrotation Xrotation
							JOINT lwrist
							{
								OFFSET 0.265709 0.012698 -0.007375
								CHANNELS 3 Zrotation Yrotation Xrotation
								End Site
								{
									OFFSET 0.000000 0.000000 0.000000
								}
							}
						}
					}
				}
				JOINT rclavicle
				{
					OFFSET -0.082954 0.112472 -0.023707
					CHANNELS 3 Zrotation Yrotation Xrotation
					JOINT rshoulder
					{
						OFFSET -0.113228 0.046853 -0.008472
						CHANNELS 3 Zrotation Yrotation Xrotation
						JOINT relbow
						{
							OFFSET -0.260127 -0.014369 -0.031269
							CHANNELS 3 Zrotation Yrotation Xrotation
							JOINT rwrist
							{
								OFFSET -0.269108 0.006794 -0.006027
								CHANNELS 3 Zrotation Yrotation Xrotation
								End Site
								{
									OFFSET 0.000000 0.000000 0.000000
								}
							}
						}
					}
				}
			}
		}
	}
}
MOTION
Frames: 11
Frame Time: 0.033333
1.236879 0.706683 0.993937 -88.019675 0.024139 85.353293 -1.073007 -1.253278 0.178990 -1.819027 -8.708995 9.225739 3.222298 9.442489 -12.514210 0.000000 -0.000000 0.000000 2.611465 -1.779844 -0.011199 -3.737177 0.590247 10.928382 2.417720 -9.534470 -13.127661 0.000000 -0.000000 0.000000 -0.307956 2.457055 10.803165 -1.050716 -1.631895 -3.241039 -0.005080 0.438180 1.287833 0.326660 -2.280581 -7.142918 3.831993 -5.492925 -0.260299 -23.721157 -5.458582 3.085100 -58.955207 -7.707611 10.895050 -2.726994 -11.933098 12.188191 5.063672 -5.667985 -1.974363 20.308434 7.623401 4.594695 63.334432 -1.607719 17.433647 -1.355986 26.745392 17.692052 -4.726139 4.403945 4.995803 
1.236972 0.706579 0.993948 -88.012258 0.047604 85.400880 -1.040842 -1.190855 0.225443 -1.772311 -8.647202 8.961178 3.193419 9.336908 -12.376720 0.000000 -0.000000 0.000000 2.647583 -1.708550 -0.041848 -3.767952 0.508141 10.891279 2.354125 -9.346325 -13.137115 0.000000 -0.000000 0.000000 -0.331023 2.462139 10.764370 -0.979846 -1.686404 -2.944727 0.008997 0.385119 1.118425 0.365151 -2.136727 -7.282917 3.842878 -5.411273 -0.396557 -23.831966 -5.447778 3.146059 -58.805420 -7.659193 10.991543 -2.708854 -12.145690 11.944272 4.707827 -5.633800 -1.957969 20.292726 7.666724 4.680209 63.214551 -1.576167 17.612949 -1.444983 26.910077 17.527539 -4.231751 4.178316 4.546850 
1.237110 0.706511 0.993854 -88.032828 0.059486 85.422045 -1.037508 -1.176747 0.152536 -1.772916 -8.626802 9.047519 3.245603 9.289984 -12.346060 0.000000 -0.000000 0.000000 2.651419 -1.695912 -0.069527 -3.798849 0.449475 10.851188 2.338351 -9.336108 -13.028836 0.000000 -0.000000 0.000000 -0.381499 2.456982 10.830109 -0.954887 -1.693405 -2.897921 0.050018 0.396768 1.087528 0.387390 -2.160525 -7.364706 3.917714 -5.406024 -0.470079 -23.915640 -5.536958 3.209895 -58.641071 -7.652764 10.954512 -2.922042 -12.193766 11.647946 4.831371 -5.627567 -2.056485 20.343572 7.770688 4.740953 63.091675 -1.651912 17.624902 -1.449445 27.093272 17.286208 -4.291298 4.171585 4.380478 
1.237314 0.706315 0.993759 -87.968324 0.084900 85.483152 -1.030644 -1.265296 -0.036454 -1.849700 -8.783423 9.271728 3.271103 9.377363 -12.621043 0.000000 -0.000000 0.000000 2.688136 -1.690698 -0.194164 -3.788040 0.549507 10.969101 2.376301 -9.391824 -13.076534 0.000000 -0.000000 0.000000 -0.361801 2.450335 10.925648 -0.957533 -1.695530 -2.966633 0.039189 0.371452 1.140391 0.435504 -2.214222 -7.504023 3.890543 -5.557471 -0.510960 -23.927472 -5.390724 3.068884 -58.600384 -7.667490 10.980340 -3.011172 -12.242305 11.729465 5.105730 -5.652300 -2.147138 20.394367 7.640495 4.606675 63.034019 -1.569286 17.656984 -1.286577 26.893274 17.482290 -4.646804 4.270072 4.661120 
1.237659 0.706315 0.993626 -87.988344 0.121311 85.536021 -0.954678 -1.280277 -0.242898 -1.888730 -8.625164 9.471409 3.325465 9.282811 -12.574437 0.000000 -0.000000 0.000000 2.704363 -1.695704 -0.338075 -3.742233 0.468342 11.048429 2.267627 -9.414991 -13.146899 0.000000 -0.000000 0.000000 -0.384079 2.520798 10.898764 -0.921927 -1.670048 -2.807286 0.054619 0.428124 1.101219 0.460536 -2.230943 -7.719432 3.887495 -5.643730 -0.594593 -23.999080 -5.456084 3.032801 -58.493183 -7.742628 10.984828 -3.007430 -12.270751 11.736201 5.030692 -5.703614 -2.120512 20.530012 7.736916 4.696296 62.948251 -1.625269 17.636048 -1.582044 27.101668 17.193594 -4.658342 4.346662 4.542270 
1.238165 0.706409 0.993445 -88.130308 0.203015 85.638699 -0.845573 -1.285377 -0.494738 -1.946206 -8.483748 9.689964 3.344975 9.265356 -12.838140 0.000000 -0.000000 0.000000 2.795804 -1.675379 -0.669809 -3.678492 0.528014 11.347830 2.315635 -9.263712 -13.240856 0.000000 -0.000000 0.000000 -0.339902 2.603305 11.041486 -0.929584 -1.596729 -2.908373 0.078469 0.428654 1.086341 0.463551 -2.245376 -7.831380 3.874903 -5.730884 -0.725841 -24.048310 -5.479041 2.983298 -58.371548 -7.651614 11.001366 -3.067272 -12.298652 11.628681 5.126129 -5.871906 -2.288526 20.605564 7.893745 4.784343 62.864278 -1.618754 17.663331 -1.604613 27.078027 17.031103 -4.962682 4.557444 4.445436 
1.238027 0.706398 0.993262 -88.131109 0.202280 85.574341 -0.804212 -1.343979 -0.462789 -2.036965 -8.344336 9.793298 3.289016 9.178535 -12.906690 0.000000 -0.000000 0.000000 2.808795 -1.635487 -0.633205 -3.690177 0.562795 11.439798 2.380347 -9.299023 -13.415942 0.000000 -0.000000 0.000000 -0.332855 2.593990 11.177753 -0.926463 -1.649154 -2.907021 0.041246 0.462301 1.156775 0.503546 -2.213710 -8.039772 3.835628 -5.805579 -0.772795 -24.152471 -5.521743 2.959277 -58.174538 -7.644583 10.923050 -3.032212 -12.210054 11.478008 5.051777 -6.232695 -2.208327 20.755951 7.988393 4.869485 62.698422 -1.573796 17.664726 -1.601101 27.097176 17.053748 -4.914531 4.727973 4.735710 
1.239057 0.706428 0.992950 -88.214097 0.251494 85.770088 -0.723820 -1.488154 -0.989366 -2.156387 -8.193345 10.239741 3.396380 9.299395 -13.045209 0.000000 -0.000000 0.000000 2.833012 -1.626831 -1.175800 -3.632000 0.492871 11.902896 2.303365 -9.146906 -13.466289 0.000000 -0.000000 0.000000 -0.220131 2.612381 11.326838 -0.979573 -1.594513 -3.123974 -0.021631 0.455802 1.234659 0.529903 -2.000976 -8.351513 3.827894 -5.778381 -0.773019 -24.095809 -5.330760 2.748079 -58.231396 -7.682886 10.943059 -2.901822 -12.237587 11.508985 4.977346 -6.250417 -2.228900 20.748884 7.806666 4.730548 62.640157 -1.351750 17.712871 -1.427007 26.936781 17.436658 -4.755188 4.792367 4.961102 
1.239623 0.706324 0.992753 -88.224277 0.258264 85.743663 -0.773796 -1.518414 -1.199278 -2.125949 -8.185193 10.672826 3.449573 9.287103 -13.346474 0.000000 -0.000000 0.000000 2.847774 -1.554870 -1.331808 -3.625745 0.491247 12.190836 2.306785 -9.197546 -13.571426 0.000000 -0.000000 0.000000 -0.185150 2.570605 11.612932 -1.015002 -1.603879 -3.129485 -0.047803 0.462685 1.277350 0.581863 -1.945041 -8.657609 3.801507 -5.785291 -0.933665 -24.171955 -5.353904 2.681689 -58.060710 -7.738787 10.877933 -2.886308 -12.347076 11.495133 4.839004 -6.459356 -2.036873 20.819929 7.831457 4.598248 62.562429 -1.233017 17.731271 -1.411393 26.766740 17.675591 -4.760906 4.936474 5.685519 
1.239986 0.706078 0.992437 -88.216764 0.242092 85.842582 -0.789564 -1.629152 -1.551040 -2.242597 -8.179852 11.080155 3.560873 9.379757 -13.544499 0.000000 -0.000000 0.000000 2.775190 -1.513945 -1.629058 -3.501181 0.501170 12.506525 2.263873 -9.244568 -13.786843 0.000000 -0.000000 0.000000 -0.200026 2.627614 11.800676 -1.010049 -1.586529 -3.239473 -0.063909 0.375548 1.394143 0.596192 -1.824788 -8.994634 3.784560 -5.878429 -0.976232 -24.171464 -5.404944 2.628286 -57.987857 -7.837201 10.904102 -2.989022 -12.324406 11.450406 4.823521 -6.759224 -2.207947 20.862827 7.696040 4.565868 62.487011 -1.075808 17.769126 -1.426939 26.899925 17.947699 -4.549751 5.020700 6.068282 
1.240561 0.706176 0.992078 -88.281722 0.261451 85.996830 -0.657490 -1.721548 -1.985684 -2.467941 -8.001722 11.546805 3.667154 9.360596 -13.800380 0.000000 -0.000000 0.000000 2.819203 -1.382105 -2.023309 -3.446721 0.577928 12.872124 2.172336 -9.328128 -14.033647 0.000000 -0.000000 0.000000 -0.269957 2.623212 11.979013 -0.934126 -1.602824 -3.288725 -0.013551 0.381401 1.391730 0.667661 -1.808712 -9.202953 3.626785 -5.865584 -1.177332 -24.516937 -5.401510 2.664451 -57.618543 -7.765059 10.809926 -2.881949 -12.667184 11.482864 4.399772 -6.797203 -1.907279 21.279400 7.896642 4.686952 62.019831 -1.143350 17.842466 -1.722628 27.221981 17.890661 -4.349694 5.249016 6.338910 
